<?xml version="1.0" encoding="UTF-8"?>
<svg width="48px" height="66px" viewBox="0 0 48 66" version="1.1" xmlns="http://www.w3.org/2000/svg" xmlns:xlink="http://www.w3.org/1999/xlink">
    <!-- Generator: Sketch 57.1 (83088) - https://sketch.com -->
    <title>icon1</title>
    <desc>Created with Sketch.</desc>
    <g id="Page-1" stroke="none" stroke-width="1" fill="none" fill-rule="evenodd">
        <g id="SIGMU-Copy-5-(1)" transform="translate(-129.000000, -422.000000)" fill="#FFFFFF">
            <path d="M148.9353,438 C152.150242,438 154.766172,440.348022 154.766172,443.233837 L154.766172,450.480412 C155.256103,450.360244 155.770689,450.295915 156.302619,450.295915 C158.026552,450.295915 159.578193,450.970859 160.646496,452.041943 C161.528315,451.559987 162.564223,451.281956 163.670081,451.281956 C165.187894,451.281956 166.572115,451.805211 167.610746,452.661563 C168.588889,452.014281 169.797234,451.631264 171.102905,451.631264 C174.354399,451.631264 177,454.005404 177,456.923898 L177,472.787649 C177,481.176069 169.397462,488 160.051784,488 C154.635734,488 149.501917,485.646446 146.320373,481.704214 L146.207279,481.564104 C145.590923,480.800129 144.953066,480.010035 144.308616,479.264715 L131.223376,464.139852 C129.251323,461.860148 129.71273,458.565841 132.251974,456.795754 C134.791791,455.025667 138.461976,455.440335 140.434029,457.719524 L143.104284,460.80579 L143.104284,443.233837 C143.104284,440.348022 145.719641,438 148.9353,438 Z M148.935873,441.854744 C148.088599,441.854744 147.399426,442.473464 147.399426,443.233837 L147.399426,466.430621 C147.399426,467.254294 146.816468,467.987005 145.948123,468.253844 C145.080207,468.521325 144.118835,468.263493 143.556088,467.613123 L137.042637,460.084014 C136.739763,459.734834 136.285666,459.551367 135.826982,459.551367 C135.497877,459.551367 135.165761,459.645803 134.886394,459.840849 C134.562162,460.066517 134.355611,460.392152 134.304583,460.758057 C134.253124,461.123448 134.363925,461.484722 134.615341,461.775748 L147.701154,476.901126 C148.389323,477.696751 149.048394,478.513477 149.685534,479.302927 L149.798055,479.44265 C152.174896,482.387263 156.008058,484.145256 160.051784,484.145256 C167.028935,484.145256 172.705431,479.050241 172.705431,472.788163 L172.705431,456.923898 C172.705431,456.131361 171.986445,455.486008 171.103479,455.486008 C170.21994,455.486008 169.501526,456.131361 169.501526,456.923898 L169.501526,459.057317 C169.501526,460.121711 168.539581,460.984625 167.35374,460.984625 C166.167756,460.984625 165.206384,460.121711 165.206384,459.057317 L165.206384,456.515793 C165.206384,455.755934 164.517212,455.137215 163.670081,455.137215 C162.82338,455.137215 162.134207,455.75542 162.134207,456.515793 L162.134207,459.057317 C162.134207,460.121711 161.172835,460.984625 159.986851,460.984625 C158.801011,460.984625 157.839065,460.121711 157.839065,459.057317 L157.839065,455.529752 C157.839065,454.769379 157.150323,454.150659 156.303192,454.150659 C155.456061,454.150659 154.766745,454.769379 154.766745,455.529752 L154.766745,459.057317 C154.766745,460.121711 153.805373,460.984625 152.619533,460.984625 C151.433549,460.984625 150.472177,460.121711 150.472177,459.057317 L150.472177,443.233837 C150.472177,442.473464 149.783005,441.854744 148.935873,441.854744 Z M149.5,428 C156.392291,428 162,433.370627 162,439.971527 C162,441.091852 161.051762,442 159.881981,442 C158.712342,442 157.763539,441.091852 157.763539,439.971527 C157.763539,435.607486 154.056688,432.057353 149.5,432.057353 C144.943171,432.057353 141.23632,435.607486 141.23632,439.971527 C141.23632,441.091852 140.288082,442 139.118443,442 C137.948238,442 137,441.091852 137,439.971527 C137,433.370627 142.607709,428 149.5,428 Z M148.49993,422 C159.252762,422 168,429.690653 168,439.143691 C168,440.16893 167.054707,441 165.888559,441 C164.722552,441 163.777259,440.16893 163.777259,439.143691 C163.777259,431.737661 156.923989,425.712494 148.49993,425.712494 C140.076574,425.712494 133.222741,431.737661 133.222741,439.143691 C133.222741,440.16893 132.277448,441 131.1113,441 C129.945293,441 129,440.16893 129,439.143691 C129,429.690653 137.747661,422 148.49993,422 Z" id="icon1"></path>
        </g>
    </g>
</svg>