<?xml version="1.0" encoding="UTF-8"?>
<svg width="48px" height="48px" viewBox="0 0 48 48" version="1.1" xmlns="http://www.w3.org/2000/svg" xmlns:xlink="http://www.w3.org/1999/xlink">
    <!-- Generator: Sketch 57.1 (83088) - https://sketch.com -->
    <title>icon2</title>
    <desc>Created with Sketch.</desc>
    <g id="Page-1" stroke="none" stroke-width="1" fill="none" fill-rule="evenodd">
        <g id="SIGMU-Copy-5-(1)" transform="translate(-1114.000000, -433.000000)" fill="#FFFFFF">
            <path d="M1160.59854,466.985401 C1161.37261,466.985401 1162,467.612788 1162,468.386861 C1162,475.341653 1156.34165,481 1149.38686,481 C1148.61279,481 1147.9854,480.372613 1147.9854,479.59854 C1147.9854,478.824467 1148.61279,478.19708 1149.38686,478.19708 C1154.79631,478.19708 1159.19708,473.796309 1159.19708,468.386861 C1159.19708,467.612788 1159.82447,466.985401 1160.59854,466.985401 Z M1149.60581,439.143197 C1149.98965,439.525952 1150.29046,439.969152 1150.49998,440.451303 C1152.0887,439.543503 1154.19292,439.735256 1155.59593,441.134311 C1156.95592,442.490566 1157.18022,444.50918 1156.35739,446.076242 C1156.85813,446.285546 1157.31811,446.592088 1157.71371,446.986575 C1159.09243,448.361414 1159.32003,450.456805 1158.39611,452.0692 C1158.87369,452.274562 1159.32078,452.571155 1159.71017,452.959823 C1161.30848,454.553268 1161.36004,457.114236 1159.86518,458.770102 L1159.71054,458.932602 L1151.31218,467.306938 C1146.88319,471.723449 1141.02258,474.591577 1134.80967,475.382804 C1134.74972,475.3905 1134.69013,475.394161 1134.63065,475.394161 C1134.30509,475.394161 1133.98904,475.281915 1133.73654,475.07572 L1133.63237,474.981653 L1122.82256,464.202287 C1122.54931,463.929805 1122.40159,463.559729 1122.40903,463.17881 L1122.41915,463.035626 L1124.40647,446.841752 C1124.4572,444.556485 1126.33704,442.712729 1128.6409,442.712729 C1130.90526,442.712729 1132.76054,444.494359 1132.8709,446.725879 L1132.87609,446.936361 L1132.87609,449.852544 L1143.61578,439.143197 C1145.27132,437.492226 1147.95055,437.492601 1149.60581,439.143197 Z M1154.9927,466.985401 C1155.76677,466.985401 1156.39416,467.612788 1156.39416,468.386861 C1156.39416,472.250686 1153.25069,475.394161 1149.38686,475.394161 C1148.61279,475.394161 1147.9854,474.766774 1147.9854,473.992701 C1147.9854,473.218628 1148.61279,472.591241 1149.38686,472.591241 C1151.70506,472.591241 1153.59124,470.705063 1153.59124,468.386861 C1153.59124,467.612788 1154.21863,466.985401 1154.9927,466.985401 Z M1145.71977,441.03727 L1145.61252,441.133935 L1132.46242,454.246999 C1132.05872,454.649558 1131.45134,454.77026 1130.92378,454.552039 C1130.44009,454.352433 1130.11095,453.904474 1130.05945,453.39266 L1130.05238,453.251629 L1130.05238,446.935985 C1130.05238,446.159776 1129.41893,445.528484 1128.6409,445.528484 C1127.8625,445.528484 1127.22905,446.159776 1127.22905,446.935985 L1127.22653,447.021725 L1127.21879,447.107183 L1125.30573,462.696515 L1135.13063,472.494121 C1140.30705,471.691068 1145.17457,469.289026 1148.95345,465.669768 L1149.31572,465.31573 L1157.71371,456.941394 C1158.26415,456.392604 1158.26415,455.499446 1157.71371,454.950656 C1157.19768,454.436076 1156.37854,454.403915 1155.82439,454.853863 L1155.71726,454.95028 L1149.4345,461.215334 C1148.91758,461.730805 1148.09946,461.763092 1147.54507,461.312102 C1147.50789,461.281692 1147.47222,461.24978 1147.43767,461.215334 C1146.88658,460.665324 1146.88658,459.774043 1147.43767,459.224126 L1147.61952,459.042841 C1148.96681,457.699643 1154.34447,452.337152 1155.50615,451.178751 L1155.71688,450.968615 C1156.26731,450.419356 1156.26731,449.526292 1155.71688,448.977408 C1155.19952,448.461509 1154.3822,448.429595 1153.82766,448.880738 L1153.72042,448.977408 L1145.44122,457.233294 C1144.88975,457.782835 1143.99557,457.782835 1143.44438,457.233294 C1142.89329,456.683283 1142.89329,455.792003 1143.44438,455.242086 L1143.66147,455.025615 C1145.01632,453.674578 1151.81705,446.893008 1153.31619,445.398089 L1153.5991,445.115976 C1154.14953,444.567185 1154.14953,443.674028 1153.5991,443.125143 C1153.08174,442.609244 1152.26442,442.577 1151.70988,443.028412 L1151.60264,443.125143 L1141.44755,453.251254 C1140.89646,453.800889 1140.00228,453.800889 1139.4511,453.251254 C1138.93409,452.735707 1138.90178,451.920133 1139.35416,451.367006 L1139.4511,451.260046 L1147.60898,443.125143 C1148.16092,442.574851 1148.16092,441.684697 1147.60898,441.133935 C1147.09162,440.618388 1146.27438,440.586167 1145.71977,441.03727 Z M1126.61314,433 C1127.38721,433 1128.0146,433.627387 1128.0146,434.40146 C1128.0146,435.175533 1127.38721,435.80292 1126.61314,435.80292 C1121.20369,435.80292 1116.80292,440.203691 1116.80292,445.613139 C1116.80292,446.387212 1116.17553,447.014599 1115.40146,447.014599 C1114.62739,447.014599 1114,446.387212 1114,445.613139 C1114,438.658347 1119.65835,433 1126.61314,433 Z M1126.61314,438.605839 C1127.38721,438.605839 1128.0146,439.233226 1128.0146,440.007299 C1128.0146,440.781372 1127.38721,441.408759 1126.61314,441.408759 C1124.29494,441.408759 1122.40876,443.294937 1122.40876,445.613139 C1122.40876,446.387212 1121.78137,447.014599 1121.0073,447.014599 C1120.23323,447.014599 1119.60584,446.387212 1119.60584,445.613139 C1119.60584,441.749314 1122.74931,438.605839 1126.61314,438.605839 Z" id="icon2"></path>
        </g>
    </g>
</svg>