<?xml version="1.0" encoding="UTF-8"?>
<svg width="50px" height="50px" viewBox="0 0 50 50" version="1.1" xmlns="http://www.w3.org/2000/svg" xmlns:xlink="http://www.w3.org/1999/xlink">
    <!-- Generator: Sketch 57.1 (83088) - https://sketch.com -->
    <title>icon3</title>
    <desc>Created with Sketch.</desc>
    <g id="Page-1" stroke="none" stroke-width="1" fill="none" fill-rule="evenodd">
        <g id="SIGMU-Copy-5-(1)" transform="translate(-635.000000, -432.000000)" fill="#FFFFFF" stroke="#FFFFFF">
            <path d="M672.952233,449.777282 C673.357666,449.777282 673.692293,450.082975 673.741375,450.477808 L673.747573,450.578248 L673.747573,457.783192 C673.736586,463.951608 669.614801,469.327592 663.724749,470.916935 L663.413126,470.997072 L663.413126,474.595979 L666.592621,474.595979 C668.720242,474.598284 670.456935,476.282403 670.562387,478.39925 L670.567456,478.598934 L670.567456,479.399275 C670.567456,480.234663 669.932598,480.920423 669.122148,480.99404 L668.977398,481.000583 L651.488621,481.000583 C650.659102,481.000583 649.97816,480.361233 649.90506,479.545049 L649.898563,479.399275 L649.898563,478.598934 C649.900852,476.456262 651.57314,474.707283 653.675117,474.601084 L653.873398,474.595979 L657.052893,474.595979 L657.052893,470.997072 C651.101518,469.541515 646.877312,464.246787 646.722808,458.107098 L646.718447,457.783192 L646.718447,450.578248 C646.718447,450.136046 647.074567,449.777282 647.513786,449.777282 C647.918646,449.777282 648.253229,450.082975 648.302308,450.477808 L648.308505,450.578248 L648.308505,457.783192 C648.308505,464.415588 653.647205,469.792058 660.23301,469.792058 C666.717494,469.792058 671.992952,464.579746 672.153739,458.088396 L672.157515,457.783192 L672.157515,450.578248 C672.157515,450.136046 672.513635,449.777282 672.952233,449.777282 Z M666.592621,476.197286 L653.873398,476.197286 C652.610881,476.197286 651.578003,477.184495 651.494121,478.434464 L651.488621,478.598934 L651.488621,479.399275 L668.977398,479.399275 L668.977398,478.598934 C668.977398,477.272205 667.910031,476.197286 666.592621,476.197286 Z M661.823068,471.290789 C660.918083,471.40809 660.00379,471.424847 659.096146,471.341061 L658.642952,471.290789 L658.642952,474.595979 L661.823068,474.595979 L661.823068,471.290789 Z M663.641087,433.664936 C663.681416,433.675752 663.720736,433.689964 663.758671,433.707698 C665.8854,434.528604 667.687228,436.016347 668.894328,437.947055 C668.946,438.008934 668.988346,438.078234 669.019853,438.152439 C669.91452,439.652281 670.415389,441.351195 670.478605,443.091296 L670.485437,443.464747 L670.485437,457.953422 C670.479009,463.730076 665.788484,468.411141 660,468.418058 C654.306409,468.411254 649.675073,463.882298 649.51864,458.23662 L649.514563,457.953422 L649.514563,443.464747 C649.515571,441.595919 650.022079,439.761425 650.980147,438.155332 C651.011654,438.081253 651.054,438.011953 651.105672,437.950451 C652.312268,436.018234 654.114096,434.529107 656.241329,433.707698 C656.279264,433.689964 656.318584,433.675752 656.358913,433.664936 C658.70531,432.779132 661.29469,432.779132 663.641087,433.664936 Z M640.451913,445.596597 L640.451913,445.596597 C640.74155,445.648775 640.980765,445.846749 641.07903,446.115873 C641.177295,446.384998 641.119781,446.684456 640.927893,446.901403 C636.555482,451.848132 636.556901,461.688913 640.927893,466.633645 C641.224107,466.969177 641.183743,467.473349 640.837236,467.75995 C640.4906,468.047174 639.969744,468.007729 639.67353,467.672197 C634.771751,462.126304 634.779231,451.400007 639.67353,445.862851 C639.817155,445.700047 640.019972,445.602331 640.234812,445.585661 L640.343016,445.584154 Z M679.763243,445.585556 C679.981951,445.602158 680.18441,445.702143 680.326519,445.863043 C685.228233,451.408913 685.220753,462.135164 680.326519,467.672296 C680.13502,467.889367 679.838295,467.990725 679.548146,467.938548 C679.258512,467.886371 679.019301,467.688398 678.921037,467.419275 C678.822773,467.150151 678.880287,466.850695 679.072172,466.633748 C683.446073,461.68704 683.446073,451.846302 679.072172,446.901591 C678.929677,446.740691 678.859654,446.531484 678.87616,446.319905 C678.893311,446.1087 678.996604,445.912724 679.162828,445.775291 C679.329051,445.637234 679.54518,445.568955 679.763243,445.585556 Z M668.872147,451.514081 L651.127853,451.514081 L651.127853,457.953422 C651.127853,462.843769 655.100142,466.808066 660,466.808066 C664.812361,466.808066 668.729984,462.984087 668.868365,458.214501 L668.872147,457.953422 L668.872147,451.514081 Z M677.018474,449.595698 C680.117451,453.283899 680.109713,461.190715 677.018474,464.871444 C676.731938,465.212388 676.227381,465.25241 675.891925,464.961493 C675.556094,464.670702 675.516533,464.158653 675.803194,463.817708 C678.390375,460.741991 678.392746,453.729711 675.803194,450.649561 C675.516533,450.308616 675.556094,449.796567 675.891925,449.50565 C676.227381,449.214733 676.731938,449.254881 677.018474,449.595698 Z M643.526019,448.847866 C643.737052,448.830513 643.946212,448.899799 644.107576,449.039258 C644.442533,449.329702 644.482468,449.840797 644.196806,450.181781 C641.609625,453.257853 641.607254,460.270944 644.196806,463.35145 C644.483467,463.692433 644.443906,464.204542 644.108075,464.495493 C643.772619,464.786444 643.268062,464.746291 642.981526,464.405434 C639.882549,460.716807 639.890287,452.809077 642.981526,449.129317 C643.118928,448.965539 643.314861,448.864586 643.526019,448.847866 Z M664.436074,443.395448 L661.140683,446.684732 L664.366632,449.904088 L668.872147,449.904088 L668.872147,447.822581 L664.436074,443.395448 Z M655.563926,443.395448 L651.127853,447.822581 L651.127853,449.904088 L655.633368,449.904088 L658.859317,446.684732 L655.563926,443.395448 Z M660,447.822581 L657.914104,449.904088 L662.085896,449.904088 L660,447.822581 Z M651.941996,439.781549 C651.039535,441.739577 651.115527,443.132868 651.126756,445.178388 L651.127853,445.54638 L654.423243,442.257725 L651.941996,439.781549 Z M660,438.96844 L656.701081,442.257725 L660,445.54638 L663.295895,442.257725 L660,438.96844 Z M668.058004,439.781549 L665.576757,442.257725 L668.872147,445.54638 C668.872147,443.308037 669.012543,441.854755 668.058004,439.781549 Z M663.597229,435.378563 L661.140683,437.830088 L664.436074,441.119373 L667.221553,438.340089 C666.299404,437.048045 665.048572,436.025654 663.597229,435.378563 Z M656.402771,435.378563 C655.055096,435.979433 653.88031,436.903904 652.981034,438.067388 L652.778447,438.340089 L655.563926,441.119373 L658.859317,437.830088 L656.402771,435.378563 Z M658.49189,434.741489 L658.1189,434.81511 L660,436.692365 L661.8811,434.81511 C660.7659,434.569706 659.614358,434.545165 658.49189,434.741489 Z" id="icon3"></path>
        </g>
    </g>
</svg>